<svg xmlns="http://www.w3.org/2000/svg" xmlns:xlink="http://www.w3.org/1999/xlink" width="1923" height="1080" viewBox="0 0 1923 1080">
  <defs>
    <linearGradient id="linear-gradient" x1="0.5" x2="0.5" y2="1" gradientUnits="objectBoundingBox">
      <stop offset="0" stop-color="#92abc3"/>
      <stop offset="1" stop-color="#7692ac"/>
    </linearGradient>
  </defs>
  <g id="Group_5" data-name="Group 5" transform="translate(3)">
    <rect id="Rectangle_1" data-name="Rectangle 1" width="1920" height="1080" fill="url(#linear-gradient)"/>
    <g id="Group_1" data-name="Group 1" transform="translate(-3 768.948)">
      <path id="Path_1" data-name="Path 1" d="M11.376,324.8c-1.243-1.657-3.314-2.9-4.97-4.556s-2.9-4.141-4.142-6.213c-.828-1.243-2.9-.414-2.071.829,1.657,4.141,4.556,11.6,9.526,12.012C11.376,327.285,12.2,326.042,11.376,324.8Z" transform="translate(0 -110.662)" fill="#e3e3e3"/>
      <path id="Path_2" data-name="Path 2" d="M54.978,354.162c-2.485-1.656-5.385-2.07-8.284-2.9-3.314-1.243-6.627-2.485-9.112-4.556a.915.915,0,0,0-1.243,1.243c4.142,4.556,11.183,9.526,17.81,9.941C55.806,357.476,56.221,354.991,54.978,354.162Z" transform="translate(-11.71 -121.387)" fill="#e3e3e3"/>
      <path id="Path_3" data-name="Path 3" d="M94.706,332.4c-2.071,2.072-3.728,4.556-6.213,6.213s-4.97,2.072-7.87,2.485c-1.657.415-.828,2.072.414,2.487,7.041.828,13.668-2.487,16.568-8.7C98.02,332.811,95.949,330.74,94.706,332.4Z" transform="translate(-25.759 -116.602)" fill="#e3e3e3"/>
      <path id="Path_4" data-name="Path 4" d="M108.656,295.2a1.851,1.851,0,0,0-2.071,0c-1.657,1.657-1.243,3.728-1.243,5.385a16.808,16.808,0,0,1-1.657,7.869,1.407,1.407,0,0,0,2.485,1.243,26.328,26.328,0,0,0,2.485-7.455C109.9,300.173,110.727,296.86,108.656,295.2Z" transform="translate(-33.496 -104.675)" fill="#e3e3e3"/>
      <path id="Path_5" data-name="Path 5" d="M90.78,273.58c-2.485-1.243-4.556-3.314-6.627-4.97-2.071-2.072-3.728-4.143-6.213-5.8a1.831,1.831,0,0,0-2.485,2.485,33.49,33.49,0,0,0,6.627,6.628,41.032,41.032,0,0,0,7.041,4.555C91.193,277.307,92.851,274.822,90.78,273.58Z" transform="translate(-24.317 -94.234)" fill="#e3e3e3"/>
      <path id="Path_6" data-name="Path 6" d="M49.844,259.244a16.808,16.808,0,0,0-7.87,1.656C39.9,262.143,37,264.628,37,267.114a1.991,1.991,0,0,0,2.9,1.656,39.054,39.054,0,0,0,4.142-4.143,9.751,9.751,0,0,1,5.384-2.07C51.915,262.558,52.328,259.658,49.844,259.244Z" transform="translate(-11.961 -93.153)" fill="#e3e3e3"/>
      <path id="Path_7" data-name="Path 7" d="M53.839,298.662a9.8,9.8,0,0,1-.828-8.284c.414-1.243-1.657-2.072-2.071-.829-1.243,3.314-2.071,6.213-1.243,9.526.828,2.9,2.9,7.041,5.8,7.87a1.66,1.66,0,0,0,2.071-2.072C57.152,302.39,55.081,300.733,53.839,298.662Z" transform="translate(-15.955 -102.75)" fill="#e3e3e3"/>
      <path id="Path_8" data-name="Path 8" d="M91.268,323.17c-1.657-.828-3.728-.414-5.8-1.243a22.249,22.249,0,0,1-6.627-4.141,1.179,1.179,0,1,0-1.657,1.656c2.9,3.314,9.112,9.113,14.083,7.457C92.924,326.07,92.924,323.584,91.268,323.17Z" transform="translate(-24.806 -111.932)" fill="#e3e3e3"/>
      <path id="Path_9" data-name="Path 9" d="M147.33,313.008c-5.385,3.314-10.769,6.628-16.568,8.7-1.657.829-1.243,3.314.828,2.9,6.627-1.657,14.083-2.9,18.224-9.113C151.059,314.251,148.988,312.181,147.33,313.008Z" transform="translate(-41.934 -110.469)" fill="#e3e3e3"/>
      <path id="Path_10" data-name="Path 10" d="M172.277,273.276a2.018,2.018,0,0,0-3.314-.828c-2.071,1.656-2.9,5.384-4.556,7.869a90.978,90.978,0,0,1-5.8,7.455c-1.243,1.243.828,3.314,2.071,2.072,2.9-2.485,5.385-4.97,7.87-7.455C170.621,279.9,173.105,276.59,172.277,273.276Z" transform="translate(-51.141 -97.245)" fill="#e3e3e3"/>
      <path id="Path_11" data-name="Path 11" d="M183.089,222.791c-.828-1.243-3.314-.829-2.9.828.414,6.628,2.9,12.841,2.9,19.053a.834.834,0,1,0,1.657,0C185.16,236.045,186.816,228.589,183.089,222.791Z" transform="translate(-58.225 -81.137)" fill="#e3e3e3"/>
      <path id="Path_12" data-name="Path 12" d="M168.07,194.537a25.642,25.642,0,0,0-4.556-7.041c-2.071-2.484-4.142-5.8-7.041-6.626-1.243-.414-2.9.828-2.071,2.071.828,2.485,3.314,4.142,4.97,5.8a50.424,50.424,0,0,1,6.213,7.041C166.827,197.437,168.9,196.194,168.07,194.537Z" transform="translate(-49.833 -67.795)" fill="#e3e3e3"/>
      <path id="Path_13" data-name="Path 13" d="M123.068,162.733c-2.485-2.485-5.385-3.728-8.7-4.97-3.728-.828-8.7-1.657-12.012-.414a2.157,2.157,0,0,0,0,4.142c6.213,2.485,13.254-.828,19.053,3.728C122.653,166.046,123.9,163.975,123.068,162.733Z" transform="translate(-32.582 -60.014)" fill="#e3e3e3"/>
      <path id="Path_14" data-name="Path 14" d="M90.354,178.255c-5.8,4.97-15.739,16.154-9.112,24.024a2.351,2.351,0,0,0,3.728-.829c.828-3.314,0-6.628.828-9.526,1.243-4.143,4.142-7.87,6.627-11.183C93.668,178.67,91.6,177.013,90.354,178.255Z" transform="translate(-25.549 -66.838)" fill="#e3e3e3"/>
      <path id="Path_15" data-name="Path 15" d="M104.322,234.477c-2.485-2.072-4.97-3.728-7.455-5.8a37.353,37.353,0,0,1-5.8-8.284c-.414-1.243-2.485-.414-2.071.829,1.657,6.626,5.8,16.568,14.083,16.153C104.322,237.376,105.565,235.305,104.322,234.477Z" transform="translate(-28.748 -80.398)" fill="#e3e3e3"/>
      <path id="Path_16" data-name="Path 16" d="M143.8,254.885c-4.97-1.243-10.355-.415-14.5-3.729a.879.879,0,0,0-1.243,1.244,16.924,16.924,0,0,0,16.153,4.97C145.043,257.37,145.043,255.3,143.8,254.885Z" transform="translate(-41.303 -90.45)" fill="#e3e3e3"/>
      <path id="Path_17" data-name="Path 17" d="M195.63,264.831c-5.384-3.314-14.083-2.485-20.3-1.657-1.657,0-1.657,2.485,0,2.9,3.314.414,7.041.414,10.355,1.243,2.9.414,5.8,1.656,8.7,1.656C196.873,268.559,197.286,265.659,195.63,264.831Z" transform="translate(-56.269 -94.184)" fill="#e3e3e3"/>
      <path id="Path_18" data-name="Path 18" d="M245.582,243.262c-3.314,1.243-5.384,3.314-8.284,5.384a42.287,42.287,0,0,1-9.112,5.8c-1.657.829-.414,3.728,1.243,3.314,3.314-.829,5.8-2.485,8.7-4.141a51.476,51.476,0,0,0,9.526-7.041C248.9,245.333,247.653,242.433,245.582,243.262Z" transform="translate(-73.501 -87.94)" fill="#e3e3e3"/>
      <path id="Path_19" data-name="Path 19" d="M275.686,197.45a1.726,1.726,0,0,0-3.314,0c-1.243,4.555-2.485,8.7-5.385,12.425a1.174,1.174,0,0,0,1.657,1.656C272.787,207.8,276.514,203.663,275.686,197.45Z" transform="translate(-86.208 -72.778)" fill="#e3e3e3"/>
      <path id="Path_20" data-name="Path 20" d="M277.751,146.262c-1.243-1.657-3.728-.414-3.314,1.243,1.656,5.384,2.071,11.183,2.485,16.568,0,1.657,2.9,1.657,2.9,0C280.651,158.274,281.478,151.647,277.751,146.262Z" transform="translate(-88.688 -56.383)" fill="#e3e3e3"/>
      <path id="Path_21" data-name="Path 21" d="M259.106,95.549c-1.243-1.657-3.314.414-2.485,2.071,2.485,5.8,6.213,11.183,9.112,16.982.414,1.243,2.485.414,2.071-.828C266.148,107.146,263.662,100.519,259.106,95.549Z" transform="translate(-82.883 -40.047)" fill="#e3e3e3"/>
      <path id="Path_22" data-name="Path 22" d="M223.114,76.958c-3.728-3.728-10.768-9.112-16.567-7.041a1.726,1.726,0,0,0,0,3.314c2.485.828,4.97.414,7.455,1.243a18.709,18.709,0,0,1,7.041,4.556A1.525,1.525,0,0,0,223.114,76.958Z" transform="translate(-66.358 -31.811)" fill="#e3e3e3"/>
      <path id="Path_23" data-name="Path 23" d="M182.335,77.479c-3.728,0-7.041.828-9.526,3.728-2.071,2.485-5.384,7.87-3.314,11.183.828,1.657,2.9,1.243,4.142,0a4.98,4.98,0,0,0,.828-3.314,7.992,7.992,0,0,1,1.243-4.142c1.243-2.485,3.728-5.385,6.627-5.8A.834.834,0,1,0,182.335,77.479Z" transform="translate(-54.572 -34.404)" fill="#e3e3e3"/>
      <path id="Path_24" data-name="Path 24" d="M193.283,132.032c-2.071-2.9-5.384-4.97-7.456-7.455a45.117,45.117,0,0,1-5.8-9.526c-.828-1.657-3.314-.414-2.9,1.243,1.657,6.627,6.627,16.568,13.668,18.639C192.455,135.346,194.111,133.275,193.283,132.032Z" transform="translate(-57.236 -46.294)" fill="#e3e3e3"/>
      <path id="Path_25" data-name="Path 25" d="M238.067,162.85c-3.314-1.657-6.627-2.071-10.355-3.314a30.07,30.07,0,0,1-12.841-7.041,1.757,1.757,0,0,0-2.485,2.485c5.8,6.213,16.154,11.6,24.852,11.6C238.894,166.577,239.723,163.678,238.067,162.85Z" transform="translate(-68.47 -58.473)" fill="#e3e3e3"/>
      <path id="Path_26" data-name="Path 26" d="M296.558,126.811c-2.071,2.071-2.485,4.97-3.314,7.455a44.6,44.6,0,0,1-4.971,9.941,1.758,1.758,0,0,0,2.486,2.485,39.411,39.411,0,0,0,6.213-8.284c1.657-2.9,3.728-6.627,3.314-9.941C299.872,126.811,297.8,125.568,296.558,126.811Z" transform="translate(-92.998 -50.185)" fill="#e3e3e3"/>
      <path id="Path_27" data-name="Path 27" d="M313.494,82.751c-5.384,4.556-7.041,14.083-6.627,20.71,0,2.071,2.9,2.071,3.314,0a72.023,72.023,0,0,1,2.071-9.112c1.243-3.314,3.728-6.213,4.556-9.526C316.808,82.751,314.736,81.508,313.494,82.751Z" transform="translate(-99.165 -35.947)" fill="#e3e3e3"/>
      <path id="Path_28" data-name="Path 28" d="M336.152,50.526c-2.485-.414-4.556,1.657-6.214,2.9a14.927,14.927,0,0,0-4.142,6.213c-.828,2.071,2.072,3.728,2.9,1.657a38.924,38.924,0,0,1,3.728-4.97c1.657-1.243,4.142-1.657,4.971-3.728C337.808,52.183,337.395,50.94,336.152,50.526Z" transform="translate(-105.255 -25.675)" fill="#e3e3e3"/>
      <path id="Path_29" data-name="Path 29" d="M360.865,29.157a75.037,75.037,0,0,0-3.728-12.84,3.553,3.553,0,0,0-2.9-2.485,45.111,45.111,0,0,0-22.781,7.455,2.418,2.418,0,0,0,2.485,4.142,35.114,35.114,0,0,1,17.81-4.97l2.485,8.7c.829,3.314.414,6.627,2.485,9.112,1.243,1.657,3.314.828,4.142-.414C362.937,35.37,361.694,31.642,360.865,29.157Z" transform="translate(-106.774 -13.832)" fill="#e3e3e3"/>
    </g>
    <g id="Group_1-2" data-name="Group 1" transform="translate(1736.438 420.615) rotate(-177)">
      <path id="Path_9-2" data-name="Path 9" d="M144.313,312.976c-4.461,2.745-8.922,5.491-13.726,7.206-1.373.687-1.029,2.745.686,2.4,5.49-1.373,11.667-2.4,15.1-7.55C147.4,314.005,145.686,312.29,144.313,312.976Z" transform="translate(-56.995 -176.366)" fill="#e3e3e3"/>
      <path id="Path_10-2" data-name="Path 10" d="M169.867,273.041a1.672,1.672,0,0,0-2.745-.686c-1.716,1.372-2.4,4.46-3.775,6.519a75.373,75.373,0,0,1-4.8,6.177c-1.029,1.029.686,2.745,1.716,1.716,2.4-2.059,4.461-4.118,6.52-6.177C168.495,278.531,170.553,275.786,169.867,273.041Z" transform="translate(-69.509 -158.392)" fill="#e3e3e3"/>
      <path id="Path_11-2" data-name="Path 11" d="M182.584,222.667c-.686-1.029-2.745-.687-2.4.686.343,5.491,2.4,10.638,2.4,15.785a.691.691,0,1,0,1.373,0C184.3,233.648,185.672,227.47,182.584,222.667Z" transform="translate(-79.138 -136.499)" fill="#e3e3e3"/>
      <path id="Path_12-2" data-name="Path 12" d="M165.687,192.179a21.243,21.243,0,0,0-3.775-5.834c-1.716-2.058-3.431-4.8-5.834-5.49-1.029-.343-2.4.686-1.716,1.716.686,2.059,2.745,3.431,4.118,4.8a41.775,41.775,0,0,1,5.147,5.834C164.658,194.581,166.373,193.552,165.687,192.179Z" transform="translate(-67.731 -118.365)" fill="#e3e3e3"/>
      <path id="Path_13-2" data-name="Path 13" d="M119.249,161.7a18.833,18.833,0,0,0-7.206-4.118c-3.088-.686-7.206-1.373-9.951-.343a1.787,1.787,0,0,0,0,3.431c5.147,2.059,10.981-.686,15.785,3.088C118.905,164.446,119.935,162.73,119.249,161.7Z" transform="translate(-44.284 -107.789)" fill="#e3e3e3"/>
      <path id="Path_14-2" data-name="Path 14" d="M88.415,178.181c-4.8,4.118-13.04,13.383-7.549,19.9a1.948,1.948,0,0,0,3.088-.687c.686-2.745,0-5.491.686-7.892,1.029-3.432,3.431-6.52,5.49-9.265C91.16,178.525,89.445,177.153,88.415,178.181Z" transform="translate(-34.725 -117.064)" fill="#e3e3e3"/>
      <path id="Path_15-2" data-name="Path 15" d="M101.684,231.956c-2.059-1.716-4.118-3.088-6.177-4.8a30.946,30.946,0,0,1-4.8-6.863c-.343-1.029-2.059-.343-1.716.687,1.373,5.49,4.8,13.726,11.667,13.382C101.684,234.358,102.714,232.642,101.684,231.956Z" transform="translate(-39.073 -135.494)" fill="#e3e3e3"/>
      <path id="Path_16-2" data-name="Path 16" d="M141.054,254.2c-4.118-1.029-8.579-.344-12.01-3.089a.728.728,0,0,0-1.029,1.031,14.021,14.021,0,0,0,13.383,4.118C142.084,256.257,142.084,254.542,141.054,254.2Z" transform="translate(-56.138 -149.158)" fill="#e3e3e3"/>
      <path id="Path_17-2" data-name="Path 17" d="M191.936,264.42c-4.461-2.745-11.668-2.059-16.814-1.373-1.373,0-1.373,2.059,0,2.4,2.745.343,5.834.343,8.579,1.029,2.4.343,4.8,1.372,7.206,1.372C192.965,267.508,193.308,265.105,191.936,264.42Z" transform="translate(-76.479 -154.232)" fill="#e3e3e3"/>
      <path id="Path_18-2" data-name="Path 18" d="M242.464,243.237c-2.745,1.029-4.461,2.745-6.863,4.46a35.034,35.034,0,0,1-7.549,4.8c-1.373.687-.343,3.088,1.029,2.745,2.745-.687,4.8-2.059,7.206-3.431a42.645,42.645,0,0,0,7.892-5.834C245.209,244.952,244.18,242.55,242.464,243.237Z" transform="translate(-99.899 -145.745)" fill="#e3e3e3"/>
      <path id="Path_19-2" data-name="Path 19" d="M274.148,197.237a1.43,1.43,0,0,0-2.745,0c-1.029,3.773-2.059,7.206-4.461,10.294a.972.972,0,0,0,1.373,1.372C271.746,205.815,274.834,202.384,274.148,197.237Z" transform="translate(-117.171 -125.139)" fill="#e3e3e3"/>
      <path id="Path_20-2" data-name="Path 20" d="M277.174,146.128a1.509,1.509,0,0,0-2.745,1.029c1.372,4.461,1.716,9.265,2.059,13.726,0,1.373,2.4,1.373,2.4,0C279.577,156.079,280.263,150.589,277.174,146.128Z" transform="translate(-120.541 -102.854)" fill="#e3e3e3"/>
      <path id="Path_21-2" data-name="Path 21" d="M258.647,95.445c-1.029-1.373-2.745.343-2.059,1.716,2.059,4.8,5.147,9.265,7.549,14.069.343,1.029,2.059.343,1.716-.686C264.481,105.053,262.421,99.562,258.647,95.445Z" transform="translate(-112.651 -80.652)" fill="#e3e3e3"/>
      <path id="Path_22-2" data-name="Path 22" d="M220.059,75.671c-3.088-3.088-8.921-7.549-13.725-5.834a1.43,1.43,0,0,0,0,2.745c2.059.686,4.118.343,6.177,1.029a15.5,15.5,0,0,1,5.834,3.775A1.264,1.264,0,0,0,220.059,75.671Z" transform="translate(-90.191 -69.457)" fill="#e3e3e3"/>
      <path id="Path_23-2" data-name="Path 23" d="M180.02,77.479c-3.088,0-5.833.686-7.892,3.088-1.716,2.059-4.461,6.52-2.745,9.265.686,1.373,2.4,1.029,3.431,0a4.126,4.126,0,0,0,.686-2.745,6.621,6.621,0,0,1,1.029-3.431c1.029-2.059,3.088-4.461,5.49-4.8A.691.691,0,1,0,180.02,77.479Z" transform="translate(-74.172 -72.981)" fill="#e3e3e3"/>
    </g>
    <g id="Group_4" data-name="Group 4" transform="translate(1695.564 179.452) rotate(13)" opacity="0.93">
      <g id="Group_3" data-name="Group 3">
        <path id="Path_30" data-name="Path 30" d="M0,47.8c0-.662.324-.993.972-1.323L91.719.165h.162L92.043,0h.648c.162,0,.162,0,.324.165h.324L93.5.331,93.664.5V.662c0,.165.162.165.162.331v.331a.517.517,0,0,1,.162.331v.5L68.06,94.78a1.978,1.978,0,0,1-1.134,1.158H66.44a1.457,1.457,0,0,1-1.134-.5L47.318,77.081l-11.829,18.2c-.162.165-.162.331-.324.331H35c-.162,0-.162.165-.324.165H33.544a18919.149,18919.149,0,0,0-.324-.331l-.324-.331a.161.161,0,0,0-.162-.165.616.616,0,0,1-.162-.5l-6.32-32.255L.972,49.292A1.9,1.9,0,0,1,0,47.8ZM65.629,91.141,88.64,9.1,42.781,67.653Zm-20.9-16.376-3.4-3.639L37.757,85.517ZM34.192,86.675l4.7-19.188c0-.165.162-.331.162-.5v-.165l39.7-50.45L29.331,61.7ZM27.224,59.217,82.32,8.6,5.185,47.969Z" fill="#e3e3e3"/>
        <path id="Path_31" data-name="Path 31" d="M6.957,213.525a1.57,1.57,0,0,1,1.985-1.158,1.57,1.57,0,0,1,1.158,1.985L3.483,240.818c0,.662-.827,1.158-1.489,1.158H1.663a1.57,1.57,0,0,1-1.158-1.985Z" transform="translate(83.723 -172.504)" fill="#e3e3e3"/>
        <path id="Path_32" data-name="Path 32" d="M157.11,3.132,143.877,9.748a.911.911,0,0,1-.827.331,1.59,1.59,0,0,1-1.489-.993,1.742,1.742,0,0,1,.662-2.15L155.621.32a1.742,1.742,0,0,1,2.15.662A1.743,1.743,0,0,1,157.11,3.132Z" transform="translate(-89.765 -0.155)" fill="#e3e3e3"/>
        <path id="Path_33" data-name="Path 33" d="M395.526,353.6a1.638,1.638,0,0,1,2.316,2.316l-6.616,6.616a1.6,1.6,0,0,1-2.316,0,1.6,1.6,0,0,1,0-2.316Z" transform="translate(-375.181 -286.94)" fill="#e3e3e3"/>
        <path id="Path_34" data-name="Path 34" d="M395.526,424.22a1.638,1.638,0,0,1,2.316,2.316l-6.616,6.616a1.6,1.6,0,0,1-2.316,0,1.6,1.6,0,0,1,0-2.316Z" transform="translate(-375.181 -344.327)" fill="#e3e3e3"/>
        <path id="Path_35" data-name="Path 35" d="M424.22,331.522l13.233-13.233a1.638,1.638,0,0,1,2.316,2.316l-13.233,13.233a1.6,1.6,0,0,1-2.316,0A1.6,1.6,0,0,1,424.22,331.522Z" transform="translate(-423.724 -258.245)" fill="#e3e3e3"/>
      </g>
    </g>
  </g>
</svg>
