<svg xmlns="http://www.w3.org/2000/svg" width="97.25" height="156.53" viewBox="0 0 97.25 156.53">
  <g id="Group_4" data-name="Group 4" transform="translate(-346.416 -502.671)">
    <g id="careers" transform="translate(286.006 454.051)">
      <g id="Group_1" data-name="Group 1" opacity="0.24">
        <path id="Path_20" data-name="Path 20" d="M123.56,150.69v-11c-14.45-1.2-22.88-9.75-24.08-21.31h10.6a15.67,15.67,0,0,0,13.48,12.88v-29.1c-16-4.81-22.27-10.84-22.27-22,0-12.16,9.39-20.23,22.27-21.08V50.87h6.87v8.3c16,1.57,21.19,11.93,21.91,19.39H142c-1.33-4.94-4.22-9.75-11.56-11.08V93.73c18.42,5.3,23.72,13,23.72,23.72,0,13.37-8.91,21.2-23.72,22.28v11Zm0-59V67.24c-8.67.73-11.8,5.9-11.8,11.68S114.53,88.56,123.56,91.69Zm6.87,12.52v27.21c8.31-.84,12.76-5,12.76-12.88,0-6.38-2.77-10.84-12.76-14.33Z" transform="translate(-36.16 -1.38)" fill="#68e1fd"/>
      </g>
      <path id="Path_21" data-name="Path 21" d="M126.89,149.86v-11c-14.45-1.2-22.88-9.75-24.09-21.31h10.6a15.67,15.67,0,0,0,13.49,12.88v-29.1c-16-4.82-22.28-10.84-22.28-22,0-12.17,9.39-20.23,22.28-21.08V50h6.86v8.3c16,1.57,21.19,11.93,21.92,19.39H145.31C144,72.79,141.1,68,133.75,66.65V92.9c18.42,5.3,23.72,13,23.72,23.72,0,13.37-8.91,21.2-23.72,22.28v11Zm0-59V66.41c-8.67.72-11.8,5.9-11.8,11.68S117.86,87.73,126.89,90.86Zm6.86,12.52v27.21c8.31-.84,12.76-5,12.76-12.88,0-6.38-2.76-10.84-12.76-14.33Z" transform="translate(-36.16 -1.38)" fill="#fff"/>
      <g id="Group_2" data-name="Group 2" opacity="0.24">
        <path id="Path_22" data-name="Path 22" d="M178,177.72V172.6c-6.75-.56-10.69-4.56-11.25-10h5a7.32,7.32,0,0,0,6.3,6V155.05c-7.48-2.25-10.41-5.06-10.41-10.29,0-5.68,4.39-9.45,10.41-9.84v-3.83h3.2V135c7.48.74,9.9,5.57,10.24,9.06h-4.84a6.44,6.44,0,0,0-5.4-5.18v12.27c8.61,2.47,11.08,6.07,11.08,11.07,0,6.25-4.16,9.9-11.08,10.41v5.12Zm0-27.56V138.74c-4,.34-5.51,2.76-5.51,5.46S173.76,148.7,178,150.16Zm3.2,5.85v12.71c3.89-.39,6-2.36,6-6-.06-3-1.35-5.08-6.02-6.72Z" transform="translate(-36.16 -1.38)" fill="#68e1fd"/>
      </g>
      <path id="Path_23" data-name="Path 23" d="M179.53,177.33v-5.12c-6.75-.56-10.69-4.55-11.25-10h4.95a7.32,7.32,0,0,0,6.3,6V154.66c-7.48-2.25-10.41-5.06-10.41-10.29,0-5.68,4.39-9.45,10.41-9.84v-3.82h3.21v3.88c7.48.73,9.9,5.56,10.23,9h-4.83a6.46,6.46,0,0,0-5.4-5.17v12.26c8.6,2.47,11.08,6.07,11.08,11.08,0,6.24-4.17,9.9-11.08,10.4v5.12Zm0-27.56V138.35c-4.05.34-5.51,2.76-5.51,5.46S175.31,148.31,179.53,149.77Zm3.21,5.85v12.71c3.88-.39,6-2.36,6-6-.04-3-1.34-5.08-6-6.71Z" transform="translate(-36.16 -1.38)" fill="#fff"/>
      <g id="Group_3" data-name="Group 3" opacity="0.24">
        <path id="Path_24" data-name="Path 24" d="M107.82,206.53v-5.12c-6.75-.56-10.69-4.55-11.25-9.95h5a7.32,7.32,0,0,0,6.3,6v-13.6c-7.48-2.25-10.41-5.06-10.41-10.29,0-5.68,4.39-9.45,10.41-9.84V159.9H111v3.88c7.49.74,9.9,5.57,10.24,9.06H116.4a6.42,6.42,0,0,0-5.4-5.17v12.26c8.61,2.47,11.09,6.07,11.09,11.08,0,6.24-4.17,9.89-11.09,10.4v5.12Zm0-27.56V167.55c-4,.34-5.51,2.76-5.51,5.46s1.29,4.5,5.51,5.99Zm3.2,5.85v12.71c3.89-.39,6-2.36,6-6-.02-3-1.33-5.08-6.02-6.71Z" transform="translate(-36.16 -1.38)" fill="#68e1fd"/>
      </g>
      <path id="Path_25" data-name="Path 25" d="M109.37,206.14V201c-6.75-.56-10.68-4.55-11.25-10h4.95a7.33,7.33,0,0,0,6.3,6V183.48c-7.48-2.25-10.4-5.07-10.4-10.3,0-5.68,4.38-9.44,10.4-9.84v-3.82h3.21v3.88c7.48.73,9.9,5.57,10.23,9H118a6.46,6.46,0,0,0-5.4-5.17v12.26c8.6,2.47,11.08,6.07,11.08,11.08,0,6.24-4.17,9.9-11.08,10.4v5.12Zm0-27.56V167.17c-4.05.33-5.51,2.75-5.51,5.45S105.15,177.12,109.37,178.58Zm3.21,5.85v12.71c3.88-.39,6-2.36,6-6-.04-3-1.33-5.08-6-6.71Z" transform="translate(-36.16 -1.38)" fill="#fff"/>
    </g>
  </g>
</svg>
