<svg xmlns="http://www.w3.org/2000/svg" xmlns:xlink="http://www.w3.org/1999/xlink" width="616.805" height="512.993" viewBox="0 0 616.805 512.993">
  <defs>
    <linearGradient id="linear-gradient" x1="1.136" y1="-4.844" x2="2.136" y2="-4.844" gradientUnits="objectBoundingBox">
      <stop offset="0" stop-opacity="0"/>
      <stop offset="0.91" stop-opacity="0.8"/>
      <stop offset="1"/>
    </linearGradient>
    <linearGradient id="linear-gradient-2" x1="1.583" y1="-2.197" x2="0.929" y2="-3.384" xlink:href="#linear-gradient"/>
    <linearGradient id="linear-gradient-3" x1="0.252" y1="-0.347" x2="1.413" y2="-0.686" xlink:href="#linear-gradient"/>
    <linearGradient id="linear-gradient-4" x1="2.316" y1="0.675" x2="1.574" y2="1.107" gradientUnits="objectBoundingBox">
      <stop offset="0.36" stop-color="#00272e"/>
      <stop offset="1" stop-color="#69b9eb" stop-opacity="0"/>
    </linearGradient>
    <linearGradient id="linear-gradient-5" x1="3.949" y1="4.611" x2="4.949" y2="4.611" gradientUnits="objectBoundingBox">
      <stop offset="0" stop-color="#ecc4d7"/>
      <stop offset="0.42" stop-color="#efd4d1"/>
      <stop offset="1" stop-color="#f2eac9"/>
    </linearGradient>
    <linearGradient id="linear-gradient-6" x1="5.516" y1="7.501" x2="3.379" y2="4.977" xlink:href="#linear-gradient-5"/>
    <linearGradient id="linear-gradient-7" x1="1.863" y1="4.287" x2="2.863" y2="4.287" xlink:href="#linear-gradient-5"/>
    <linearGradient id="linear-gradient-8" x1="1.789" y1="0.321" x2="2.789" y2="0.321" xlink:href="#linear-gradient-5"/>
    <linearGradient id="linear-gradient-9" x1="0.936" y1="-0.762" x2="1.92" y2="-1.222" xlink:href="#linear-gradient"/>
    <linearGradient id="linear-gradient-10" x1="0.001" y1="-10.177" x2="1.001" y2="-10.177" xlink:href="#linear-gradient-5"/>
    <linearGradient id="linear-gradient-11" x1="5.405" y1="-21.495" x2="6.407" y2="-21.495" xlink:href="#linear-gradient-5"/>
    <linearGradient id="linear-gradient-12" x1="2.234" y1="0.187" x2="1.157" y2="0.655" xlink:href="#linear-gradient-4"/>
    <linearGradient id="linear-gradient-13" x1="1.75" y1="-3.078" x2="2.75" y2="-3.078" xlink:href="#linear-gradient-5"/>
    <linearGradient id="linear-gradient-14" x1="2.423" y1="-7.68" x2="3.423" y2="-7.68" xlink:href="#linear-gradient-5"/>
    <linearGradient id="linear-gradient-15" x1="0.745" y1="-0.315" x2="1.777" y2="-0.377" xlink:href="#linear-gradient-4"/>
    <linearGradient id="linear-gradient-16" x1="1.716" y1="1.469" x2="2.716" y2="1.469" xlink:href="#linear-gradient-5"/>
    <linearGradient id="linear-gradient-17" x1="0.455" y1="-1.303" x2="1.343" y2="-0.677" xlink:href="#linear-gradient-4"/>
    <linearGradient id="linear-gradient-18" x1="4.369" y1="-20.203" x2="5.368" y2="-20.203" xlink:href="#linear-gradient-5"/>
    <linearGradient id="linear-gradient-19" x1="3.88" y1="2.941" x2="1.963" y2="2.992" xlink:href="#linear-gradient"/>
    <linearGradient id="linear-gradient-20" x1="1.925" y1="13.503" x2="2.041" y2="3.012" gradientUnits="objectBoundingBox">
      <stop offset="0" stop-color="#68e1fd" stop-opacity="0"/>
      <stop offset="0.02" stop-color="#66daf6" stop-opacity="0.039"/>
      <stop offset="0.18" stop-color="#58a1bc" stop-opacity="0.388"/>
      <stop offset="0.35" stop-color="#4d758f" stop-opacity="0.659"/>
      <stop offset="0.53" stop-color="#45566f" stop-opacity="0.851"/>
      <stop offset="0.73" stop-color="#40435c" stop-opacity="0.961"/>
      <stop offset="0.99" stop-color="#3f3d56"/>
    </linearGradient>
    <linearGradient id="linear-gradient-21" x1="1.882" y1="11.945" x2="1.993" y2="3.833" xlink:href="#linear-gradient-20"/>
  </defs>
  <g id="Group_1" data-name="Group 1" transform="translate(-47.076 -157)">
    <g id="problem_solving" transform="translate(47.001 157.003)">
      <path id="Path_27" data-name="Path 27" d="M171.78,513,44.44,470S-2.42,411.87.19,314.11l189.5,77.57s82.4-23.68,131.49-26.05S587.9,340.41,587.9,340.41s42,48.15,23.32,62.88S458.09,420.5,458.09,420.5l-93.5-54.8L286,426.46,226,483Z" transform="translate(-0.01 -0.01)" fill="#000405" opacity="0.05"/>
      <path id="Path_28" data-name="Path 28" d="M380.54,297.14l-2,5.08s6,5.31,2,7.59C380.54,309.81,401.36,308.52,380.54,297.14Z" transform="translate(-0.01 -0.01)" fill="#3f3d56"/>
      <path id="Path_29" data-name="Path 29" d="M142.58,461.65l-2.42,6.86L160,477.8s18.44,2.32,24.11-2.54a24.329,24.329,0,0,0,7.25-11.37Z" transform="translate(-0.01 -0.01)" fill="#333"/>
      <path id="Path_30" data-name="Path 30" d="M194.61,397.29s23.38-.41,30.22,8.08S207.09,439,207.09,439l-56.69,4Z" transform="translate(-0.01 -0.01)" fill="#8fc3d2"/>
      <path id="Path_31" data-name="Path 31" d="M194.61,397.29s23.38-.41,30.22,8.08S207.09,439,207.09,439l-56.69,4Z" transform="translate(-0.01 -0.01)" fill="url(#linear-gradient)"/>
      <path id="Path_32" data-name="Path 32" d="M193.77,433.74s49.12,4.43,57.66,7.58c16.14,6.07,11.34,28.75,4,31.17-6.09,2.05-52.41,19-67.22,24.43a5.1,5.1,0,0,1-6.43-2.81L176.7,482a5.13,5.13,0,0,1,3.25-6.9l29.14-8.67s-43.26,4.36-52,2.42c-19.35-4.24-38.43-29-28.27-50.62S193.77,433.74,193.77,433.74Z" transform="translate(-0.01 -0.01)" fill="#8fc3d2"/>
      <path id="Path_33" data-name="Path 33" d="M193.77,433.74s49.12,4.43,57.66,7.58c16.14,6.07,11.34,28.75,4,31.17-6.09,2.05-52.41,19-67.22,24.43a5.1,5.1,0,0,1-6.43-2.81L176.7,482a5.13,5.13,0,0,1,3.25-6.9l29.14-8.67s-43.26,4.36-52,2.42c-19.35-4.24-38.43-29-28.27-50.62S193.77,433.74,193.77,433.74Z" transform="translate(-0.01 -0.01)" fill="url(#linear-gradient-2)"/>
      <path id="Path_34" data-name="Path 34" d="M322.09,311.51l-2.27,8.88,11.64,10.31s-3.33,0-6,5.2l-1.06,11.37s7.82,16.92,29.4,2.13l35,30.94L466.43,353l1.66-10.58Z" transform="translate(-0.01 -0.01)" fill="#3f3d56"/>
      <path id="Path_35" data-name="Path 35" d="M532.55,320l-38.62-15.17a16.94,16.94,0,0,0-15.68-.46,13.21,13.21,0,0,0-7.55,11.38c-1.33,14.6,6.53,81.8,6.53,81.8a39.429,39.429,0,0,0,9,2.31,18.86,18.86,0,0,0,15.49-3.79l.75-50.55s43.53,26.89,59.06,24.65c17.38-2.5,45.34-16.76,26.45-49.83S532.55,320,532.55,320Z" transform="translate(-0.01 -0.01)" fill="#8fc3d2"/>
      <path id="Path_36" data-name="Path 36" d="M532.55,320l-38.62-15.17a16.94,16.94,0,0,0-15.68-.46,13.21,13.21,0,0,0-7.55,11.38c-1.33,14.6,6.53,81.8,6.53,81.8a39.429,39.429,0,0,0,9,2.31,18.86,18.86,0,0,0,15.49-3.79l.75-50.55s43.53,26.89,59.06,24.65c17.38-2.5,45.34-16.76,26.45-49.83S532.55,320,532.55,320Z" transform="translate(-0.01 -0.01)" fill="url(#linear-gradient-3)"/>
      <path id="Path_37" data-name="Path 37" d="M500.55,231.08s-11.34,36.1-14.4,43.84-56.68,14.18-56.68,14.18l2,23.17,61.06-7.58,18.36-26.55Z" transform="translate(-0.01 -0.01)" fill="#8fc3d2"/>
      <path id="Path_38" data-name="Path 38" d="M500.55,231.08s-11.34,36.1-14.4,43.84-56.68,14.18-56.68,14.18l2,23.17,61.06-7.58,18.36-26.55Z" transform="translate(-0.01 -0.01)" opacity="0.61" fill="url(#linear-gradient-4)"/>
      <path id="Path_39" data-name="Path 39" d="M531.09,219.1l12.43,6.9C566.61,236.31,575,259.26,588,320.5c0,0-10.92,24.42-51.12,8,0,0-27.28-39.86-31.78-54.8s-15.83-40.65,5-50.48S531.09,219.1,531.09,219.1Z" transform="translate(-0.01 -0.01)" fill="#8fc3d2"/>
      <path id="Path_40" data-name="Path 40" d="M557.74,271.68l15.14,57.13s-15.45,9.42-36.1-.34-13.34-19.47-20-31.33l20.23-11Z" transform="translate(-0.01 -0.01)" fill="#000405" opacity="0.05"/>
      <path id="Path_41" data-name="Path 41" d="M529.34,216.63a14.1,14.1,0,0,1-18.73,6.88l-.58-.28s-11.68,20.37,5,17.94c8.84-1.29,16.58-14.45,18.06-21.12Z" transform="translate(-0.01 -0.01)" fill="#333"/>
      <path id="Path_42" data-name="Path 42" d="M530.09,200.29c0,.23-.53,10.28-.94,17.52a22.26,22.26,0,0,1-6.73,14.79,24.741,24.741,0,0,1-8.24,5.65,4.33,4.33,0,0,1-4.44-.87,4.38,4.38,0,0,1-1.26-4.37c.4-1.51.8-3.25,1.12-5.07.66-3.78,1-7.87-.07-10.76a3,3,0,0,0-.11-.32c-.6-1.49,0-3.12,1.41-4.76,1.94-2.3,5.34-4.63,8.74-6.6a106.017,106.017,0,0,1,10.52-5.21Z" transform="translate(-0.01 -0.01)" fill="url(#linear-gradient-5)"/>
      <path id="Path_43" data-name="Path 43" d="M511.83,227.17a8.911,8.911,0,0,1-2.19.77c.66-3.78,1-7.87-.07-10.76l1.3-5.08,1-3.78,7.78-2.82,7.87-2.85C525.56,216.63,518.09,224.24,511.83,227.17Z" transform="translate(-0.01 -0.01)" fill="url(#linear-gradient-6)"/>
      <path id="Path_44" data-name="Path 44" d="M509.84,160.47a22.37,22.37,0,0,0-21,23.62,12.382,12.382,0,0,0,.17,1.71,75.7,75.7,0,0,0,6.88,26.2c7.29,12.44,25.69,2.2,28.6-2.92s13.91-28.29,9.3-34.88C530.74,169.72,521.78,160,509.84,160.47Z" transform="translate(-0.01 -0.01)" fill="url(#linear-gradient-7)"/>
      <path id="Path_45" data-name="Path 45" d="M490.42,151.67l3.78,1.94a14.22,14.22,0,0,0-11.68,5.65,18.72,18.72,0,0,0-5.48,13l6.43-3s-.49,7.92,11.67,8.53,25.05,1.1,25.05,1.1l-4.1-5.72s7.55,3,8.88,5.84a93.125,93.125,0,0,1,2.56,13.66s3-7.82,4.27-6.11-1.32,8.8-2.91,10.35-1.32,6.22-1.47,6.6,7.56-6,7.9-8.19,8-24.38,3-29l3-.22a14.2,14.2,0,0,0-6-2.32S515.43,137.49,490.42,151.67Z" transform="translate(-0.01 -0.01)" fill="#333"/>
      <path id="Path_46" data-name="Path 46" d="M429.4,292a68.048,68.048,0,0,1-11.31-3,92,92,0,0,0-18-2.81s-1.17,4,2,4.82,6.8,2.16,6.8,2.16l-13.22,1.33-12.24,1.67s1.17,4,4.46,4a15,15,0,0,0,3.77,4.47,60.416,60.416,0,0,1,6.46,6.83,37.2,37.2,0,0,0,5.29,3.49c.68,0,26.45-3,28-5.46Z" transform="translate(-0.01 -0.01)" fill="url(#linear-gradient-8)"/>
      <path id="Path_47" data-name="Path 47" d="M536.9,328.5s4,19.91,9.93,24.92c0,0-38.88,30.34-40.69,52.29C503.61,436.05,599.28,389,599.28,389l-6.62-16.76-41.48,18.39S576.42,373.57,589,356.5c9.86-13.54,4.5-26-1-35.68C587.9,320.5,564.09,340.18,536.9,328.5Z" transform="translate(-0.01 -0.01)" fill="#8fc3d2"/>
      <path id="Path_48" data-name="Path 48" d="M536.9,328.5s4,19.91,9.93,24.92c0,0-38.88,30.34-40.69,52.29C503.61,436.05,599.28,389,599.28,389l-6.62-16.76-41.48,18.39S576.42,373.57,589,356.5c9.86-13.54,4.5-26-1-35.68C587.9,320.5,564.09,340.18,536.9,328.5Z" transform="translate(-0.01 -0.01)" fill="url(#linear-gradient-9)"/>
      <path id="Path_49" data-name="Path 49" d="M592.54,372.22l7.18-2.47,3.55,9.41-7.93,5.42Z" fill="url(#linear-gradient-10)"/>
      <path id="Path_50" data-name="Path 50" d="M487,404l-.68-4.17A20.47,20.47,0,0,0,501.79,396l.42,6.83A16.42,16.42,0,0,1,487,404Z" transform="translate(-0.01 -0.01)" fill="url(#linear-gradient-11)"/>
      <path id="Path_51" data-name="Path 51" d="M486.83,402.72l-17,6.14s-9.45-2.31-11.34,3a11.44,11.44,0,0,0-.34,8.64s4.46,4,15.57,1.67,29.28-8,29.28-8l-.68-11.11a17.83,17.83,0,0,1-15.49-.34Z" transform="translate(-0.01 -0.01)" fill="#333"/>
      <path id="Path_52" data-name="Path 52" d="M601.09,367.6s-4.27,1.75-3.78,2.88,2-1.36,5.82,8.73L600.68,381,606,392.37a10.42,10.42,0,0,0-4.11,9.14c.53,2.77,5.44,3.15,9.37,1.79s5.63-10.09,5.63-10.09-2.57-20.93-7.86-24.42S601.09,367.6,601.09,367.6Z" transform="translate(-0.01 -0.01)" fill="#333"/>
      <path id="Path_53" data-name="Path 53" d="M472.89,346.33l-80.26,25.29-36.8-30.56C341,356.22,323.15,344.85,325.6,336s18.9-5.65,18.9-5.65l-22.3-18.73,41.72-10.5c.26,1.47,2,8.6,12.13,9.17,11.33.65,13.9-8.57,4.49-13.08L407,290.32Z" transform="translate(-0.01 -0.01)" fill="#8fc3d2"/>
      <path id="Path_54" data-name="Path 54" d="M451.45,336.4a4.781,4.781,0,0,0-1.53.72,8.221,8.221,0,0,0-1.14,1.36c-1.48,1.84-3.89,2.57-6.08,3.44a33.54,33.54,0,0,0-7,3.78,1.71,1.71,0,0,0-.73.82c-.33,1.07,1.33,1.6,1.89,2.57a2.07,2.07,0,0,1-.34,2.23,6.631,6.631,0,0,1-1.89,1.44,34.85,34.85,0,0,0-9.8,8.94,240.3,240.3,0,0,1,37.7-15.7,7.67,7.67,0,0,0,2.79-1.34,2.55,2.55,0,0,0,.85-2.79c-.22-.49.55-.62.15-1-1.95-1.74-5.23-4.65-7.84-6.78C458.52,334.11,453.5,335.72,451.45,336.4Z" transform="translate(-0.01 -0.01)" fill="#000405" opacity="0.05"/>
      <path id="Path_55" data-name="Path 55" d="M558.09,236.81a12.33,12.33,0,0,0-21.15,4.25c-.72,2.31-1.48,5.08-2.23,8.49-4,18.43-22.11,58.51-22.11,58.51L460,336.47l14.4,18.43L536,324.56s27.28-60.26,26.79-71.75a27,27,0,0,0-4.7-16Z" transform="translate(-0.01 -0.01)" fill="#8fc3d2"/>
      <path id="Path_56" data-name="Path 56" d="M558.09,236.81a12.33,12.33,0,0,0-21.15,4.25c-.72,2.31-1.48,5.08-2.23,8.49-4,18.43-22.11,58.51-22.11,58.51L460,336.47l14.4,18.43L536,324.56s27.28-60.26,26.79-71.75a27,27,0,0,0-4.7-16Z" transform="translate(-0.01 -0.01)" opacity="0.61" fill="url(#linear-gradient-12)"/>
      <path id="Path_57" data-name="Path 57" d="M464.5,339.05a69.143,69.143,0,0,1-11.6,2.08,92.806,92.806,0,0,0-17.53,5s.6,4.1,3.78,3.53,7.06-.83,7.06-.83l-11.33,6.79-10.43,6.67s2.72,3.15,5.7,1.74a15.27,15.27,0,0,0,5.33,2.47,61.387,61.387,0,0,1,8.69,3.45,36.992,36.992,0,0,0,6.27.95c.61-.27,22.94-13.92,23.09-16.76Z" transform="translate(-0.01 -0.01)" fill="url(#linear-gradient-13)"/>
      <path id="Path_58" data-name="Path 58" d="M288.76,331.73l19.2,7.58v11.38s-23,.49-23,10.46,21.69,17.79,36.23,4.48l33.1,19-1.2,9.74L252.45,430.78l-57.66-70.35V349.06Z" transform="translate(-0.01 -0.01)" fill="#3f3d56"/>
      <path id="Path_59" data-name="Path 59" d="M288.76,320.5,308,339.27s-23,.5-23,10.47,21.69,17.79,36.23,4.47l33.1,30.34L253.51,420.09l-58.72-70.84,39.56-12.1s-12.58-8.46-.49-14.11a19.31,19.31,0,0,1,7.14-1.93c9.49-.38,11,4.51,12.25,9.86v.42Z" transform="translate(-0.01 -0.01)" fill="#8fc3d2"/>
      <path id="Path_60" data-name="Path 60" d="M210.78,344.36h0s16,34.78,23.61,40.55c4.24,3.22,33.55,12.78,58.44,14.13,2.33.13,9.61-6.62,13.05-5.73,5,1.31-.91,5.8.25,5.86,15,.71,23.31-5.86,23.31-5.86l-79,28.52-52.93-75.9Z" transform="translate(-0.01 -0.01)" fill="#000405" opacity="0.05"/>
      <path id="Path_61" data-name="Path 61" d="M287.86,406.62A58.828,58.828,0,0,1,297,397.1a35.91,35.91,0,0,1,8.88-3.79s1.4,4.25-1,5.05-3.78,5-3.78,5,17.46,3.34,19.57,2.31,2.31,2.24-1.81,2.85-4,6.52-6.8,7-6.95,3.15-11.07,4.14a54.409,54.409,0,0,1-14.3-.66Z" transform="translate(-0.01 -0.01)" fill="url(#linear-gradient-14)"/>
      <path id="Path_62" data-name="Path 62" d="M207.75,356.15A62.21,62.21,0,0,0,179.3,292a29.47,29.47,0,0,0-12.69-4.89c-18.29-1.06-37.79,131.1-37.79,131.1s8.81,25.6,35.48,28.06c24.64,2.28,29.44-12.55,29.44-12.55Z" transform="translate(-0.01 -0.01)" fill="#8fc3d2"/>
      <path id="Path_63" data-name="Path 63" d="M207.75,356.15A62.21,62.21,0,0,0,179.3,292a29.47,29.47,0,0,0-12.69-4.89c-18.29-1.06-37.79,131.1-37.79,131.1s8.81,25.6,35.48,28.06c24.64,2.28,29.44-12.55,29.44-12.55Z" transform="translate(-0.01 -0.01)" opacity="0.61" fill="url(#linear-gradient-15)"/>
      <path id="Path_64" data-name="Path 64" d="M166.61,287.09s2.68-19.94,3.78-32.91,5.36-30.34,27.13-28.07,21.76,35.2,15.71,49-14.09,13.35-14.09,13.35-10.84-2.39-10.47,10.66Z" transform="translate(-0.01 -0.01)" fill="url(#linear-gradient-16)"/>
      <path id="Path_65" data-name="Path 65" d="M174.84,223.31a24.54,24.54,0,0,0-6.65,11.11,59.5,59.5,0,0,0-2,10.5l2.23-2.42a163,163,0,0,1-1.4,18.2,98.7,98.7,0,0,0-1,17l4-.19,5,6.26,5.63-3.8,4.23-2.23,3.78-9.3a5.24,5.24,0,0,1-1.81-6.06c1.4-3.79,4.83-4.67,5.63-2.43a43.27,43.27,0,0,1,1,8.49l6-17s3.78-5.28,7.07-1.63a17.53,17.53,0,0,0,7.25,4.85l-2-5.69,5.44,1.4-.42-6.48,4,2.84s1.81-10.5-1.63-15.17S202.28,208.33,174.84,223.31Z" transform="translate(-0.01 -0.01)" fill="#333"/>
      <path id="Path_66" data-name="Path 66" d="M288.42,403.25l-44.54-4.82a29.32,29.32,0,0,1-23.51-24.8L203.9,323.38a17.71,17.71,0,0,0-14.21-12.17,15.41,15.41,0,0,0-17,19.8l17,60.67a29.28,29.28,0,0,0,26.45,25.67L286,426.46Z" transform="translate(-0.01 -0.01)" fill="#8fc3d2"/>
      <path id="Path_67" data-name="Path 67" d="M288.42,403.25l-44.54-4.82a29.32,29.32,0,0,1-23.51-24.8L203.9,323.38a17.71,17.71,0,0,0-14.21-12.17,15.41,15.41,0,0,0-17,19.8l17,60.67a29.28,29.28,0,0,0,26.45,25.67L286,426.46Z" transform="translate(-0.01 -0.01)" opacity="0.61" fill="url(#linear-gradient-17)"/>
      <path id="Path_68" data-name="Path 68" d="M178.47,477l-13.11,3,5.25,15.17L184.33,492S188,480.27,178.47,477Z" transform="translate(-0.01 -0.01)" fill="url(#linear-gradient-18)"/>
      <path id="Path_69" data-name="Path 69" d="M160,477.8s8.58-1.82,10,1.1-3.14,2.73-2.23,6.87a83.6,83.6,0,0,0,2.83,9.29l4.23-.95.87,5a3.81,3.81,0,0,0,3.78,3c9.9.57,8.58,9.55,5.1,9.89l-12.81,1L165,507.3a5.38,5.38,0,0,1-1.85-2.24C160.68,500.21,153.09,482.16,160,477.8Z" transform="translate(-0.01 -0.01)" fill="#333"/>
      <path id="Path_70" data-name="Path 70" d="M368.41,168.55a19.29,19.29,0,0,0-1.7,3c-2.87,6.14-12.58,28.1-14,47.13a18.93,18.93,0,0,1-17.84,17.75l-17.34,1-5.67.3a18.9,18.9,0,0,1-19.65-15.17c-3.55-17.52-11.11-44.29-25.8-56.12,0,0-64.77-59.31-21.58-125.45a102.738,102.738,0,0,1,9.71-12.67C299.87-21.86,374.69,1,392.67,47.61S375.56,158.5,368.41,168.55Z" transform="translate(-0.01 -0.01)" fill="#8fc3d2" opacity="0.4"/>
      <path id="Path_71" data-name="Path 71" d="M355.19,244.62c-1.51,3.79-3.25,5.61-1.74,8.12S359.31,262,337.24,265a120.121,120.121,0,0,1-13.79,1.1h-7.22l-4.23-.19c-4.83-.3-8.73-.79-11.33-1.21a10.17,10.17,0,0,1-7-4.44,5.25,5.25,0,0,1,.8-5.46,2.92,2.92,0,0,0,.15-4.13,3.07,3.07,0,0,0-1.06-.72,6.28,6.28,0,0,1-.38-8.76,7.39,7.39,0,0,0,1.33-1.9,6.49,6.49,0,0,0-.87-6.64l-.61-.75a11,11,0,0,1-1.81-3.8,5.68,5.68,0,0,1,.91-5.68,18.89,18.89,0,0,0,19.64,15.16l5.67-.34a2.76,2.76,0,0,0,.38-.72c1-2.42-1.25-5.23-.11-9l4.26-.19a118.25,118.25,0,0,0,30.76-6,6.13,6.13,0,0,1,1.51,7.59,9.42,9.42,0,0,0-.79,2.65,9.63,9.63,0,0,0,.94,5.61,5.231,5.231,0,0,0,.34.61A7.59,7.59,0,0,1,355.19,244.62Z" transform="translate(-0.01 -0.01)" fill="#8fc3d2"/>
      <path id="Path_72" data-name="Path 72" d="M292.17,222.4a129.62,129.62,0,0,1,60.45-1.1S319.86,234.72,292.17,222.4Z" transform="translate(-0.01 -0.01)" fill="#333"/>
      <path id="Path_73" data-name="Path 73" d="M321.18,265.74a20,20,0,0,1-5,.34l-4.24-.19c-4.83-.3-8.72-.79-11.33-1.21a10.17,10.17,0,0,1-7-4.44,5.24,5.24,0,0,1,.79-5.46,3,3,0,0,0,.88-2.68,2.91,2.91,0,0,0-1.79-2.17,6.27,6.27,0,0,1-.37-8.76,6.39,6.39,0,0,0,.45-8.53,11.43,11.43,0,0,1-2.34-4.52,5.7,5.7,0,0,1,.9-5.68,74.351,74.351,0,0,0,29.74,4.85l.49.23s-3.78,1.44-2.8,4.74,2.42,9.25-.83,13.12,3,4.93,1.82,9.29v.42a24.181,24.181,0,0,0-1.1,4C318.77,262.52,319.09,265.44,321.18,265.74Z" transform="translate(-0.01 -0.01)" fill="url(#linear-gradient-19)"/>
      <path id="Path_74" data-name="Path 74" d="M321.94,227.25a74.15,74.15,0,0,1-29.77-4.85c-3.52-17.41-11.08-44.18-25.77-56,0,0-64.77-59.31-21.58-125.45a102.742,102.742,0,0,1,9.71-12.67l5.82-.53s38.74-20.41,55.17,1.93-19.43,47.59-21.31,88.39S339,166.42,321.94,227.25Z" transform="translate(-0.01 -0.01)" fill="#fff" opacity="0.49"/>
      <path id="Path_75" data-name="Path 75" d="M350.09,255.12c-2.8,1.82-12.85,5.24-30.76,4a131.346,131.346,0,0,1-24.82-4.4,2.92,2.92,0,0,0,.15-4.13,3.07,3.07,0,0,0-1.06-.72,88.05,88.05,0,0,0,27,4.74,102.11,102.11,0,0,0,30.56-3.79S354.28,252.39,350.09,255.12Z" transform="translate(-0.01 -0.01)" fill="url(#linear-gradient-20)"/>
      <path id="Path_76" data-name="Path 76" d="M354.36,237.22c-3.36,2.81-16.06,8-34.42,6.22a101.1,101.1,0,0,1-25.43-4.21,6.47,6.47,0,0,0-.87-6.63l-.61-.76c1.21.46,3.25,1.1,6,1.82a106,106,0,0,0,18.9,3h2.94a84.28,84.28,0,0,0,32.61-5.16,9.58,9.58,0,0,0,.88,5.72Z" transform="translate(-0.01 -0.01)" fill="url(#linear-gradient-21)"/>
      <path id="Path_77" data-name="Path 77" d="M228.61,328.81l.23,10,5.55-1.71S228.61,333.09,228.61,328.81Z" transform="translate(-0.01 -0.01)" fill="#3f3d56"/>
      <path id="Path_78" data-name="Path 78" d="M350.26,126.13l-1.21-.82a41.45,41.45,0,0,0,1.89-17.13c-1.44-12.24-10.08-19.71-24.3-21-21.8-2.07-30.43,9.18-33.63,16.06-9.24,19.23-.88,50.37,12.44,64.34,16.42,17.14,10.08,49.46,7.76,59a3,3,0,0,0-.15.72v.64l3.35,1.14.24-.94a109.1,109.1,0,0,0,3.44-23.35c.59-17-3.48-30.75-11.81-39.75-12.3-12.89-20.29-42.65-11.8-60.26,5.15-10.55,15.54-15.41,30.07-14.06,15.81,1.5,20.18,10.57,21.06,17.88A37.73,37.73,0,0,1,346,123.45a16.48,16.48,0,0,0-11.42-1.28c-7.49,2.06-12.22,9.82-14.87,15.94a8.53,8.53,0,0,0,1.57,9.21,8.44,8.44,0,0,0,8.86,2.27c6.75-2.39,13.79-10.67,17.75-20.77l.39.27c11,7.74,3.15,19.67-5.88,33.5-6.43,9.69-14.41,21.75-15.27,33.63-1,10.64-.54,19.05.18,29.76l.05.85h3.6l-.05-1c-.7-10.69-1.12-19-.18-29.34.77-10.88,8.12-22.07,14.6-32l.29-.45C355,149.61,363.87,135.91,350.26,126.13Zm-21.44,20a4.67,4.67,0,0,1-5-1.31,4.87,4.87,0,0,1-.9-5.33c1.9-4.41,6.06-12.1,12.53-13.9a10.92,10.92,0,0,1,2.84-.38,15.06,15.06,0,0,1,6.34,1.64c-3.77,9.53-10.18,17.4-15.81,19.3ZM347,126h0l.16.11Z" transform="translate(-0.01 -0.01)" fill="#fff"/>
    </g>
  </g>
</svg>
